<svg xmlns="http://www.w3.org/2000/svg" xmlns:xlink="http://www.w3.org/1999/xlink" width="2131" height="550" viewBox="0 0 2131 550">
  <defs>
    <clipPath id="clip-edgepilot_full">
      <rect width="2131" height="550"/>
    </clipPath>
  </defs>
  <g id="edgepilot_full" clip-path="url(#clip-edgepilot_full)">
    <g id="Group_123" data-name="Group 123" transform="translate(-459 -114)">
      <g id="Group_114" data-name="Group 114" transform="translate(459 115)">
        <path id="Polygon_47" data-name="Polygon 47" d="M467.425,0a14,14,0,0,1,12.118,6.99l150.4,260a14,14,0,0,1,0,14.02l-150.4,260A14,14,0,0,1,467.425,548H166.575a14,14,0,0,1-12.118-6.99l-150.4-260a14,14,0,0,1,0-14.02l150.4-260A14,14,0,0,1,166.575,0Z" transform="translate(0 0)" fill="#454bf7"/>
        <g id="noun-pilot-4101948" transform="translate(97.166 106.688)">
          <g id="Group_120" data-name="Group 120">
            <path id="Path_431" data-name="Path 431" d="M447.3,149.5A149.16,149.16,0,0,0,298.941,16H204.727A149.165,149.165,0,0,0,56.365,149.52,25.547,25.547,0,0,0,32,174.987V212.28H47.7V174.987a9.825,9.825,0,0,1,9.814-9.814h6.1a7.852,7.852,0,0,0,7.84-7.421A133.435,133.435,0,0,1,204.727,31.7h94.214A133.435,133.435,0,0,1,432.209,157.751a7.852,7.852,0,0,0,7.84,7.422h6.1a9.825,9.825,0,0,1,9.814,9.814v66.735a9.825,9.825,0,0,1-9.814,9.814h-1.539a7.851,7.851,0,0,0-7.656,6.114,132.651,132.651,0,0,1-41.185,69.819q-1.51,1.352-3.066,2.661a37.226,37.226,0,0,0-10.377-20.443,66.845,66.845,0,0,0,42.233-62.077v-84.4a37.36,37.36,0,0,0-28.824-36.323q.421-2.239.633-4.557l.713-7.85a47.106,47.106,0,0,0-46.914-51.373H153.5a47.106,47.106,0,0,0-46.914,51.372l.713,7.851q.211,2.316.633,4.557A37.359,37.359,0,0,0,79.107,163.21v84.4a66.845,66.845,0,0,0,42.233,62.076,37.225,37.225,0,0,0-10.379,20.461,132.673,132.673,0,0,1-44.249-72.5,7.851,7.851,0,0,0-7.657-6.114H57.516a9.825,9.825,0,0,1-9.814-9.814V212.28H32v29.442A25.559,25.559,0,0,0,52.8,266.8c8.971,33.5,57.708,82.825,57.708,82.825l15.7-13.691s9.672-21.577,21.591-21.591H355.862c11.919.013-218.243,0-218.243,0l-26.658,35.282H402.188s41.185-54.864,48.675-82.825a25.559,25.559,0,0,0,20.8-25.08V174.987A25.547,25.547,0,0,0,447.3,149.5ZM130.309,89.037A31.058,31.058,0,0,1,153.5,78.81H350.169a31.406,31.406,0,0,1,31.276,34.249l-.713,7.851a31.253,31.253,0,0,1-31.276,28.561H286.491l-29.1-29.105a7.852,7.852,0,0,0-11.1,0l-29.1,29.105H154.212a31.253,31.253,0,0,1-31.276-28.561l-.713-7.852A31.061,31.061,0,0,1,130.309,89.037Zm15.534,209.606A51.091,51.091,0,0,1,94.81,247.611v-84.4a21.624,21.624,0,0,1,18.651-21.391,46.876,46.876,0,0,0,40.752,23.354H349.456a46.875,46.875,0,0,0,40.751-23.354,21.624,21.624,0,0,1,18.651,21.391v84.4a51.091,51.091,0,0,1-51.033,51.033Z" transform="translate(-32 -16)" fill="#fff"/>
            <rect id="Rectangle_1138" data-name="Rectangle 1138" width="50.272" height="15.703" transform="translate(159.967 116.049) rotate(-141.338)" fill="#fff"/>
            <rect id="Rectangle_1139" data-name="Rectangle 1139" width="50.272" height="15.703" transform="translate(309.14 116.049) rotate(-141.338)" fill="#fff"/>
          </g>
        </g>
        <g id="Group_122" data-name="Group 122" transform="translate(205.654 279.45)">
          <path id="Path_434" data-name="Path 434" d="M184,176a40.045,40.045,0,0,0-40,40h16a24,24,0,0,1,48,0h16a40.045,40.045,0,0,0-40-40Z" transform="translate(-144 -176)" fill="#fff"/>
          <path id="Path_437" data-name="Path 437" d="M184,176a40.045,40.045,0,0,0-40,40h16a24,24,0,0,1,48,0h16a40.045,40.045,0,0,0-40-40Z" transform="translate(-1.309 -176)" fill="#fff"/>
        </g>
      </g>
      <text id="EdgePilot" transform="translate(1166 492.5)" fill="#454bf7" font-size="285" font-family="Inter" font-weight="800" letter-spacing="0.024em"><tspan x="0" y="0">EdgePilot</tspan></text>
    </g>
  </g>
</svg>
