<svg xmlns="http://www.w3.org/2000/svg" xmlns:xlink="http://www.w3.org/1999/xlink" width="2290" height="550" viewBox="0 0 2290 550">
  <defs>
    <clipPath id="clip-edgepilot_full">
      <rect width="2290" height="550"/>
    </clipPath>
  </defs>
  <g id="edgepilot_full" clip-path="url(#clip-edgepilot_full)">
    <g id="Group_123" data-name="Group 123" transform="translate(-459 -114)">
      <g id="Group_114" data-name="Group 114" transform="translate(459 115)">
        <path id="Polygon_47" data-name="Polygon 47" d="M467.425,0a14,14,0,0,1,12.118,6.99l150.4,260a14,14,0,0,1,0,14.02l-150.4,260A14,14,0,0,1,467.425,548H166.575a14,14,0,0,1-12.118-6.99l-150.4-260a14,14,0,0,1,0-14.02l150.4-260A14,14,0,0,1,166.575,0Z" transform="translate(0 0)" fill="#454bf7"/>
        <g id="noun-pilot-4101948" transform="translate(97.166 106.688)">
          <g id="Group_120" data-name="Group 120">
            <path id="Path_431" data-name="Path 431" d="M447.3,149.5A149.16,149.16,0,0,0,298.941,16H204.727A149.165,149.165,0,0,0,56.365,149.52,25.547,25.547,0,0,0,32,174.987V212.28H47.7V174.987a9.825,9.825,0,0,1,9.814-9.814h6.1a7.852,7.852,0,0,0,7.84-7.421A133.435,133.435,0,0,1,204.727,31.7h94.214A133.435,133.435,0,0,1,432.209,157.751a7.852,7.852,0,0,0,7.84,7.422h6.1a9.825,9.825,0,0,1,9.814,9.814v66.735a9.825,9.825,0,0,1-9.814,9.814h-1.539a7.851,7.851,0,0,0-7.656,6.114,132.651,132.651,0,0,1-41.185,69.819q-1.51,1.352-3.066,2.661a37.226,37.226,0,0,0-10.377-20.443,66.845,66.845,0,0,0,42.233-62.077v-84.4a37.36,37.36,0,0,0-28.824-36.323q.421-2.239.633-4.557l.713-7.85a47.106,47.106,0,0,0-46.914-51.373H153.5a47.106,47.106,0,0,0-46.914,51.372l.713,7.851q.211,2.316.633,4.557A37.359,37.359,0,0,0,79.107,163.21v84.4a66.845,66.845,0,0,0,42.233,62.076,37.225,37.225,0,0,0-10.379,20.461,132.673,132.673,0,0,1-44.249-72.5,7.851,7.851,0,0,0-7.657-6.114H57.516a9.825,9.825,0,0,1-9.814-9.814V212.28H32v29.442A25.559,25.559,0,0,0,52.8,266.8c8.971,33.5,57.708,82.825,57.708,82.825l15.7-13.691s9.672-21.577,21.591-21.591H355.862c11.919.013-218.243,0-218.243,0l-26.658,35.282H402.188s41.185-54.864,48.675-82.825a25.559,25.559,0,0,0,20.8-25.08V174.987A25.547,25.547,0,0,0,447.3,149.5ZM130.309,89.037A31.058,31.058,0,0,1,153.5,78.81H350.169a31.406,31.406,0,0,1,31.276,34.249l-.713,7.851a31.253,31.253,0,0,1-31.276,28.561H286.491l-29.1-29.105a7.852,7.852,0,0,0-11.1,0l-29.1,29.105H154.212a31.253,31.253,0,0,1-31.276-28.561l-.713-7.852A31.061,31.061,0,0,1,130.309,89.037Zm15.534,209.606A51.091,51.091,0,0,1,94.81,247.611v-84.4a21.624,21.624,0,0,1,18.651-21.391,46.876,46.876,0,0,0,40.752,23.354H349.456a46.875,46.875,0,0,0,40.751-23.354,21.624,21.624,0,0,1,18.651,21.391v84.4a51.091,51.091,0,0,1-51.033,51.033Z" transform="translate(-32 -16)" fill="#fff"/>
            <rect id="Rectangle_1138" data-name="Rectangle 1138" width="50.272" height="15.703" transform="translate(159.967 116.049) rotate(-141.338)" fill="#fff"/>
            <rect id="Rectangle_1139" data-name="Rectangle 1139" width="50.272" height="15.703" transform="translate(309.14 116.049) rotate(-141.338)" fill="#fff"/>
          </g>
        </g>
        <g id="Group_122" data-name="Group 122" transform="translate(205.654 279.45)">
          <path id="Path_434" data-name="Path 434" d="M184,176a40.045,40.045,0,0,0-40,40h16a24,24,0,0,1,48,0h16a40.045,40.045,0,0,0-40-40Z" transform="translate(-144 -176)" fill="#fff"/>
          <path id="Path_437" data-name="Path 437" d="M184,176a40.045,40.045,0,0,0-40,40h16a24,24,0,0,1,48,0h16a40.045,40.045,0,0,0-40-40Z" transform="translate(-1.309 -176)" fill="#fff"/>
        </g>
      </g>
      <path id="Path_438" data-name="Path 438" d="M66.4-161.025v40.47H131.67v37.62H66.4v43.89H140.22V0H17.67V-200.07H140.22v39.045ZM253.65-200.07q31.635,0,55.29,12.54a89.589,89.589,0,0,1,36.622,35.2q12.967,22.657,12.967,52.3,0,29.355-12.967,52.155A89.115,89.115,0,0,1,308.8-12.54Q285,0,253.65,0H178.695V-200.07ZM250.515-42.18q27.645,0,43.035-15.1t15.39-42.75q0-27.645-15.39-43.035t-43.035-15.39H227.43V-42.18ZM525.54-136.8a36.451,36.451,0,0,0-15.532-15.247q-10.117-5.272-23.8-5.272-23.655,0-37.9,15.532t-14.25,41.468q0,27.645,14.962,43.178T490.2-41.61q17.955,0,30.352-9.12t18.1-26.22H476.8v-35.91h106.02v45.315A95.6,95.6,0,0,1,564.443-33.63,96.99,96.99,0,0,1,531.525-8.265q-19.95,9.69-45.03,9.69-29.64,0-52.867-12.968a92.365,92.365,0,0,1-36.2-36.052Q384.465-70.68,384.465-100.32t12.967-52.868a92.365,92.365,0,0,1,36.052-36.195Q456.57-202.35,486.21-202.35q35.91,0,60.563,17.385T579.405-136.8Zm139.935-24.225v40.47H730.74v37.62H665.475v43.89H739.29V0H616.74V-200.07H739.29v39.045ZM930.24-135.66a64.426,64.426,0,0,1-7.98,31.778q-7.98,14.392-24.51,23.228T856.71-71.82H826.5V0H777.765V-200.07H856.71q23.94,0,40.47,8.265t24.795,22.8Q930.24-154.47,930.24-135.66Zm-77.235,25.08q13.965,0,20.8-6.555t6.84-18.525q0-11.97-6.84-18.525t-20.8-6.555H826.5v50.16Zm158.175-89.49V0H962.445V-200.07Zm90.915,162.45h63.84V0H1053.36V-200.07h48.735ZM1290.765,2a104.419,104.419,0,0,1-51.728-13.11A98,98,0,0,1,1201.7-47.738Q1187.88-71.25,1187.88-100.6T1201.7-153.33a98.312,98.312,0,0,1,37.335-36.48,104.419,104.419,0,0,1,51.728-13.11,104.419,104.419,0,0,1,51.727,13.11,96.254,96.254,0,0,1,37.05,36.48q13.538,23.37,13.537,52.725T1379.4-47.738a97.266,97.266,0,0,1-37.05,36.623A103.625,103.625,0,0,1,1290.765,2Zm0-44.46q23.94,0,38.333-15.96t14.392-42.18q0-26.505-14.392-42.323t-38.333-15.817q-24.225,0-38.618,15.675T1237.755-100.6q0,26.5,14.392,42.322T1290.765-42.465ZM1570.92-200.07v39.045h-53.01V0h-48.735V-161.025h-53.01V-200.07Z" transform="translate(1166 492.5)" fill="#454bf7"/>
    </g>
  </g>
</svg>
